TITLE ""
FILE "Disc1Track70.mp3" MP3
  TRACK 01 AUDIO
    TITLE "Disc1Track70_01"
    INDEX 01 00:00:00
  TRACK 02 AUDIO
    TITLE "Disc1Track70_02"
    INDEX 01 00:00:69
  TRACK 03 AUDIO
    TITLE "Disc1Track70_03"
    INDEX 01 00:03:34
  TRACK 04 AUDIO
    TITLE "Disc1Track70_04"
    INDEX 01 00:04:41
  TRACK 05 AUDIO
    TITLE "Disc1Track70_05"
    INDEX 01 00:07:22
  TRACK 06 AUDIO
    TITLE "Disc1Track70_06"
    INDEX 01 00:07:51
  TRACK 07 AUDIO
    TITLE "Disc1Track70_07"
    INDEX 01 00:08:63
  TRACK 08 AUDIO
    TITLE "Disc1Track70_08"
    INDEX 01 00:10:54
  TRACK 09 AUDIO
    TITLE "Disc1Track70_09"
    INDEX 01 00:11:67
  TRACK 10 AUDIO
    TITLE "Disc1Track70_10"
    INDEX 01 00:12:21
  TRACK 11 AUDIO
    TITLE "Disc1Track70_11"
    INDEX 01 00:13:54
  TRACK 12 AUDIO
    TITLE "Disc1Track70_12"
    INDEX 01 00:15:06
  TRACK 13 AUDIO
    TITLE "Disc1Track70_13"
    INDEX 01 00:16:39
  TRACK 14 AUDIO
    TITLE "Disc1Track70_14"
    INDEX 01 00:16:68
  TRACK 15 AUDIO
    TITLE "Disc1Track70_15"
    INDEX 01 00:17:70
  TRACK 16 AUDIO
    TITLE "Disc1Track70_16"
    INDEX 01 00:18:67
  TRACK 17 AUDIO
    TITLE "Disc1Track70_17"
    INDEX 01 00:19:64
  TRACK 18 AUDIO
    TITLE "Disc1Track70_18"
    INDEX 01 00:21:65
  TRACK 19 AUDIO
    TITLE "Disc1Track70_19"
    INDEX 01 00:22:30
  TRACK 20 AUDIO
    TITLE "Disc1Track70_20"
    INDEX 01 00:23:33
  TRACK 21 AUDIO
    TITLE "Disc1Track70_21"
    INDEX 01 00:26:04
  TRACK 22 AUDIO
    TITLE "Disc1Track70_22"
    INDEX 01 00:27:05
  TRACK 23 AUDIO
    TITLE "Disc1Track70_23"
    INDEX 01 00:31:36
  TRACK 24 AUDIO
    TITLE "Disc1Track70_24"
    INDEX 01 00:31:70
  TRACK 25 AUDIO
    TITLE "Disc1Track70_25"
    INDEX 01 00:33:16
  TRACK 26 AUDIO
    TITLE "Disc1Track70_26"
    INDEX 01 00:35:58
  TRACK 27 AUDIO
    TITLE "Disc1Track70_27"
    INDEX 01 00:37:04
  TRACK 28 AUDIO
    TITLE "Disc1Track70_28"
    INDEX 01 00:41:37
  TRACK 29 AUDIO
    TITLE "Disc1Track70_29"
    INDEX 01 00:41:68
  TRACK 30 AUDIO
    TITLE "Disc1Track70_30"
    INDEX 01 00:43:08
  TRACK 31 AUDIO
    TITLE "Disc1Track70_31"
    INDEX 01 00:44:15
  TRACK 32 AUDIO
    TITLE "Disc1Track70_32"
    INDEX 01 00:45:31
  TRACK 33 AUDIO
    TITLE "Disc1Track70_33"
    INDEX 01 00:50:12
  TRACK 34 AUDIO
    TITLE "Disc1Track70_34"
    INDEX 01 00:50:43
  TRACK 35 AUDIO
    TITLE "Disc1Track70_35"
    INDEX 01 00:51:55
  TRACK 36 AUDIO
    TITLE "Disc1Track70_36"
    INDEX 01 00:54:12
  TRACK 37 AUDIO
    TITLE "Disc1Track70_37"
    INDEX 01 00:55:23
  TRACK 38 AUDIO
    TITLE "Disc1Track70_38"
    INDEX 01 00:57:22
  TRACK 39 AUDIO
    TITLE "Disc1Track70_39"
    INDEX 01 00:57:55
  TRACK 40 AUDIO
    TITLE "Disc1Track70_40"
    INDEX 01 00:58:72
  TRACK 41 AUDIO
    TITLE "Disc1Track70_41"
    INDEX 01 01:01:16
  TRACK 42 AUDIO
    TITLE "Disc1Track70_42"
    INDEX 01 01:02:33
  TRACK 43 AUDIO
    TITLE "Disc1Track70_43"
    INDEX 01 01:02:68
  TRACK 44 AUDIO
    TITLE "Disc1Track70_44"
    INDEX 01 01:04:22
  TRACK 45 AUDIO
    TITLE "Disc1Track70_45"
    INDEX 01 01:05:25
  TRACK 46 AUDIO
    TITLE "Disc1Track70_46"
    INDEX 01 01:06:52
  TRACK 47 AUDIO
    TITLE "Disc1Track70_47"
    INDEX 01 01:09:37
  TRACK 48 AUDIO
    TITLE "Disc1Track70_48"
    INDEX 01 01:09:68
  TRACK 49 AUDIO
    TITLE "Disc1Track70_49"
    INDEX 01 01:11:03
  TRACK 50 AUDIO
    TITLE "Disc1Track70_50"
    INDEX 01 01:12:04
  TRACK 51 AUDIO
    TITLE "Disc1Track70_51"
    INDEX 01 01:13:13
  TRACK 52 AUDIO
    TITLE "Disc1Track70_52"
    INDEX 01 01:17:01
